<?xml version="1.0" encoding="UTF-8" standalone="no"?>
<!-- Created with Inkscape (http://www.inkscape.org/) -->

<svg
   xmlns:dc="http://purl.org/dc/elements/1.1/"
   xmlns:cc="http://creativecommons.org/ns#"
   xmlns:rdf="http://www.w3.org/1999/02/22-rdf-syntax-ns#"
   xmlns:svg="http://www.w3.org/2000/svg"
   xmlns="http://www.w3.org/2000/svg"
   xmlns:sodipodi="http://sodipodi.sourceforge.net/DTD/sodipodi-0.dtd"
   xmlns:inkscape="http://www.inkscape.org/namespaces/inkscape"
   width="434.44345"
   height="236.20247"
   id="svg2"
   version="1.1"
   inkscape:version="0.48.2 r9819"
   sodipodi:docname="New document 1">
  <defs
     id="defs4">
    <clipPath
       clipPathUnits="userSpaceOnUse"
       id="clipPath4231">
      <path
         inkscape:connector-curvature="0"
         d="M 0,0 94,0 94,48 0,48 0,0 z"
         id="path4233" />
    </clipPath>
    <clipPath
       clipPathUnits="userSpaceOnUse"
       id="clipPath4171">
      <path
         inkscape:connector-curvature="0"
         d="M 0,0 63,0 63,48 0,48 0,0 z"
         id="path4173" />
    </clipPath>
    <clipPath
       clipPathUnits="userSpaceOnUse"
       id="clipPath9859">
      <path
         inkscape:connector-curvature="0"
         d="M 0,0 287,0 287,36 0,36 0,0 z"
         id="path9861" />
    </clipPath>
    <clipPath
       clipPathUnits="userSpaceOnUse"
       id="clipPath9775">
      <path
         inkscape:connector-curvature="0"
         d="M 0,0 231,0 231,36 0,36 0,0 z"
         id="path9777" />
    </clipPath>
    <clipPath
       clipPathUnits="userSpaceOnUse"
       id="clipPath9679">
      <path
         inkscape:connector-curvature="0"
         d="M 0,0 287,0 287,36 0,36 0,0 z"
         id="path9681" />
    </clipPath>
    <clipPath
       id="clipPath18"
       clipPathUnits="userSpaceOnUse">
      <path
         inkscape:connector-curvature="0"
         id="path20"
         d="M 0,0 569,0 569,480 0,480 0,0 z" />
    </clipPath>
    <marker
       style="overflow:visible"
       id="Arrow1Mend"
       refX="0"
       refY="0"
       orient="auto"
       inkscape:stockid="Arrow1Mend">
      <path
         inkscape:connector-curvature="0"
         transform="matrix(-0.4,0,0,-0.4,-4,0)"
         style="fill-rule:evenodd;stroke:#000000;stroke-width:1pt;marker-start:none"
         d="M 0,0 5,-5 -12.5,0 5,5 0,0 z"
         id="path5444" />
    </marker>
    <marker
       style="overflow:visible"
       id="Arrow2Lend"
       refX="0"
       refY="0"
       orient="auto"
       inkscape:stockid="Arrow2Lend">
      <path
         inkscape:connector-curvature="0"
         transform="matrix(-1.1,0,0,-1.1,-1.1,0)"
         d="M 8.7185878,4.0337352 -2.2072895,0.01601326 8.7185884,-4.0017078 c -1.7454984,2.3720609 -1.7354408,5.6174519 -6e-7,8.035443 z"
         style="font-size:12px;fill-rule:evenodd;stroke-width:0.625;stroke-linejoin:round"
         id="path5456" />
    </marker>
  </defs>
  <sodipodi:namedview
     id="base"
     pagecolor="#ffffff"
     bordercolor="#666666"
     borderopacity="1.0"
     inkscape:pageopacity="0.0"
     inkscape:pageshadow="2"
     inkscape:zoom="1.4"
     inkscape:cx="252.28301"
     inkscape:cy="82.639928"
     inkscape:document-units="px"
     inkscape:current-layer="layer1"
     showgrid="false"
     fit-margin-top="2"
     fit-margin-left="2"
     fit-margin-right="2"
     fit-margin-bottom="2"
     inkscape:window-width="1920"
     inkscape:window-height="1032"
     inkscape:window-x="0"
     inkscape:window-y="0"
     inkscape:window-maximized="1">
    <inkscape:grid
       type="xygrid"
       id="grid4785"
       empspacing="5"
       visible="true"
       enabled="true"
       snapvisiblegridlinesonly="true" />
  </sodipodi:namedview>
  <metadata
     id="metadata7">
    <rdf:RDF>
      <cc:Work
         rdf:about="">
        <dc:format>image/svg+xml</dc:format>
        <dc:type
           rdf:resource="http://purl.org/dc/dcmitype/StillImage" />
        <dc:title></dc:title>
      </cc:Work>
    </rdf:RDF>
  </metadata>
  <g
     inkscape:label="Layer 1"
     inkscape:groupmode="layer"
     id="layer1"
     transform="translate(-184.38215,-815.26233)">
    <g
       id="g12"
       transform="matrix(1.25,0,0,-1.25,110.73944,947.72066)" />
    <g
       transform="matrix(1.25,0,0,1.25,191.60272,297.21147)"
       id="g3605" />
    <g
       transform="matrix(1.25,0,0,1.25,127.60272,277.21147)"
       id="g3683" />
    <g
       id="g9853"
       transform="matrix(0.39815586,0,0,-0.39815586,690.72474,234.43627)" />
    <path
       id="path3471"
       style="fill:#ffffff;fill-opacity:0.729412;fill-rule:nonzero;stroke:none"
       d="m 362.50796,818.19761 c -14.8775,0.005 -29.82375,8.79874 -36.9725,23.29125 -5.835,11.5725 -5.68875,26.52875 0.4925,37.895 6.91,13.16875 20.30875,21.3825 34,22.27125 14.4425,1.1125 29.4425,-5.7475 37.96375,-18.71625 6.7825,-10.1075 8.8225,-24.00375 4.83875,-35.86375 -4.55625,-14.10625 -16.43125,-24.5025 -29.62875,-27.6425 -3.49625,-0.87875 -7.095,-1.30375 -10.69375,-1.235 z"
       inkscape:connector-curvature="0" />
    <g
       transform="matrix(1.25,0,0,1.25,248.45047,597.87061)"
       id="g3473">
      <path
         id="path3475"
         style="fill:none;stroke:#000000;stroke-width:1.48574102;stroke-linecap:butt;stroke-linejoin:miter;stroke-miterlimit:4;stroke-opacity:1;stroke-dasharray:none"
         d="m 91.246,176.262 c -11.902,0.004 -23.859,7.039 -29.578,18.633 -4.668,9.257 -4.551,21.222 0.395,30.316 5.527,10.535 16.246,17.105 27.199,17.816 11.554,0.891 23.554,-4.597 30.371,-14.972 5.426,-8.086 7.058,-19.203 3.871,-28.692 -3.645,-11.285 -13.145,-19.601 -23.703,-22.113 -2.797,-0.703 -5.676,-1.043 -8.555,-0.988 z"
         inkscape:connector-curvature="0" />
    </g>
    <path
       id="path3485"
       style="fill:#8c8c8c;fill-opacity:0.729412;fill-rule:nonzero;stroke:none"
       d="m 363.53203,964.94071 c -14.88375,0.01 -29.82499,8.79875 -36.97749,23.29125 -5.83125,11.5725 -5.68375,26.52874 0.4925,37.89624 6.91375,13.1738 20.31249,21.3862 34.00375,22.27 14.43874,1.1188 29.44374,-5.7475 37.96375,-18.7162 6.77749,-10.1076 8.82374,-24.0038 4.83875,-35.8638 -4.555,-14.10624 -16.43,-24.49749 -29.62876,-27.64124 -3.49624,-0.875 -7.09499,-1.29875 -10.6925,-1.23625 z"
       inkscape:connector-curvature="0" />
    <g
       id="g8875"
       transform="matrix(1.25,0,0,-1.25,232.26876,1296.7005)">
      <g
         id="g3487"
         transform="matrix(1,0,0,-1,13.490625,536.40735)">
        <path
           inkscape:connector-curvature="0"
           d="m 91.52,271 c -11.907,0.008 -23.86,7.039 -29.582,18.633 -4.665,9.258 -4.547,21.222 0.394,30.316 5.531,10.539 16.25,17.11 27.203,17.817 11.551,0.894 23.555,-4.598 30.371,-14.973 5.422,-8.086 7.059,-19.203 3.871,-28.691 -3.644,-11.286 -13.144,-19.598 -23.703,-22.114 -2.797,-0.699 -5.676,-1.039 -8.554,-0.988 z"
           style="fill:none;stroke:#000000;stroke-width:1.51679206;stroke-linecap:butt;stroke-linejoin:miter;stroke-miterlimit:4;stroke-opacity:1;stroke-dasharray:none"
           id="path3489" />
      </g>
    </g>
    <path
       inkscape:connector-curvature="0"
       id="path3983"
       d="m 229.57273,958.45487 0,-56.17064 z"
       style="fill:none;stroke:#000000;stroke-width:2.02200007;stroke-linecap:butt;stroke-linejoin:miter;stroke-miterlimit:4;stroke-opacity:1;stroke-dasharray:none;marker-end:url(#Arrow1Mend)" />
    <path
       style="fill:none;stroke:#000000;stroke-width:2.02200007;stroke-linecap:butt;stroke-linejoin:miter;stroke-miterlimit:4;stroke-opacity:1;stroke-dasharray:none;marker-end:url(#Arrow1Mend)"
       d="m 362.76687,958.29774 0,-56.17064 z"
       id="path3985"
       inkscape:connector-curvature="0" />
    <path
       inkscape:connector-curvature="0"
       d="m 228.94461,964.89611 c -14.8775,0.005 -29.82374,8.8 -36.97249,23.29124 -5.83501,11.5725 -5.68875,26.52875 0.49374,37.89625 6.90875,13.1688 20.3075,21.3813 34.00375,22.27 14.43875,1.1138 29.43875,-5.7475 37.96375,-18.7162 6.7775,-10.1113 8.81875,-24.0038 4.83375,-35.8638 -4.555,-14.10625 -16.43,-24.5025 -29.62874,-27.64125 -3.49626,-0.87875 -7.09501,-1.30375 -10.69376,-1.23625 z"
       style="fill:#8c8c8c;fill-opacity:0.729412;fill-rule:nonzero;stroke:none"
       id="path3999" />
    <g
       id="g4001"
       transform="matrix(1.25,0,0,1.25,-191.29913,624.90161)">
      <path
         inkscape:connector-curvature="0"
         d="m 336.195,271.996 c -11.902,0.004 -23.859,7.039 -29.578,18.633 -4.668,9.258 -4.551,21.223 0.395,30.316 5.527,10.535 16.246,17.106 27.203,17.817 11.551,0.89 23.551,-4.598 30.371,-14.973 5.422,-8.09 7.055,-19.203 3.867,-28.691 -3.644,-11.286 -13.144,-19.602 -23.703,-22.114 -2.797,-0.703 -5.676,-1.043 -8.555,-0.988 z"
         style="fill:none;stroke:#000000;stroke-width:1.51679206;stroke-linecap:butt;stroke-linejoin:miter;stroke-miterlimit:4;stroke-opacity:1;stroke-dasharray:none"
         id="path4003" />
    </g>
    <path
       inkscape:connector-curvature="0"
       d="m 227.27456,1004.9848 3.92625,-4.3512 c 0.43875,-0.4688 0.63875,-0.70255 3.4225,-0.70255 l 0,-1.5825 c -1.17125,0.0637 -2.915,0.0975 -3.08625,0.0975 -0.84,0 -2.51375,-0.0638 -3.45624,-0.0975 l 0,1.5825 c 0.46875,0 0.87374,0.0675 1.27375,0.30255 -0.13125,0.2 -0.13125,0.2637 -0.26375,0.4 l -2.8225,3.14 -3.285,-3.84255 1.3425,0 0,-1.5825 c -0.87375,0.0337 -2.98875,0.0975 -4.0625,0.0975 -1.075,0 -2.58375,-0.0638 -3.69125,-0.0975 l 0,1.5825 2.3825,0 5.23375,6.16125 -4.39375,4.9225 c -0.57125,0.635 -1.7775,0.635 -3.38875,0.635 l 0,1.5813 c 1.17125,-0.064 2.92,-0.097 3.08625,-0.097 0.83875,0 2.7825,0.064 3.45625,0.097 l 0,-1.5813 c -0.605,0 -1.24,-0.1662 -1.24,-0.3662 0,-0.035 0,-0.069 0.23375,-0.3375 l 3.2525,-3.6525 3.69125,4.3562 -1.30876,0 0,1.5813 c 0.875,-0.034 2.92001,-0.097 4.02875,-0.097 1.07375,0 2.5825,0.064 3.69125,0.097 l 0,-1.5813 -2.3825,0"
       style="fill:#000000;fill-opacity:1;fill-rule:nonzero;stroke:none"
       id="path4005" />
    <path
       id="path4061"
       style="fill:none;stroke:#000000;stroke-width:1.76959133;stroke-linecap:butt;stroke-linejoin:miter;stroke-miterlimit:4;stroke-opacity:1;stroke-dasharray:none"
       d="m 228.50505,818.77011 c -14.8825,0.01 -29.82375,8.79875 -36.9775,23.29625 -5.835,11.5725 -5.6825,26.53375 0.49375,37.9 6.90875,13.17 20.3125,21.3875 34.00875,22.27125 14.43875,1.1125 29.44375,-5.7475 37.96375,-18.72125 6.7825,-10.1075 8.82375,-24.00375 4.83875,-35.86375 -4.555,-14.11125 -16.43,-24.5025 -29.63375,-27.64625 -3.49125,-0.875 -7.095,-1.29875 -10.69375,-1.23625 z"
       inkscape:connector-curvature="0" />
    <g
       transform="matrix(1.25,0,0,1.25,-190.53245,597.12011)"
       id="g4069" />
    <path
       style="fill:none;stroke:#000000;stroke-width:2.02200007;stroke-linecap:butt;stroke-linejoin:miter;stroke-miterlimit:4;stroke-opacity:1;stroke-dasharray:none;marker-end:url(#Arrow1Mend)"
       d="m 311.47028,858.24152 -33.37246,0 z"
       id="path4783"
       inkscape:connector-curvature="0" />
    <path
       inkscape:connector-curvature="0"
       d="m 572.50796,818.19761 c -14.8775,0.005 -29.82375,8.79874 -36.9725,23.29125 -5.835,11.5725 -5.68875,26.52875 0.4925,37.895 6.91,13.16875 20.30875,21.3825 34,22.27125 14.4425,1.1125 29.4425,-5.7475 37.96375,-18.71625 6.7825,-10.1075 8.8225,-24.00375 4.83875,-35.86375 -4.55625,-14.10625 -16.43125,-24.5025 -29.62875,-27.6425 -3.49625,-0.87875 -7.095,-1.30375 -10.69375,-1.235 z"
       style="fill:#ffffff;fill-opacity:0.729412;fill-rule:nonzero;stroke:none"
       id="path4791" />
    <g
       id="g4793"
       transform="matrix(1.25,0,0,1.25,458.45047,597.87061)">
      <path
         inkscape:connector-curvature="0"
         d="m 91.246,176.262 c -11.902,0.004 -23.859,7.039 -29.578,18.633 -4.668,9.257 -4.551,21.222 0.395,30.316 5.527,10.535 16.246,17.105 27.199,17.816 11.554,0.891 23.554,-4.597 30.371,-14.972 5.426,-8.086 7.058,-19.203 3.871,-28.692 -3.645,-11.285 -13.145,-19.601 -23.703,-22.113 -2.797,-0.703 -5.676,-1.043 -8.555,-0.988 z"
         style="fill:none;stroke:#000000;stroke-width:1.48574102;stroke-linecap:butt;stroke-linejoin:miter;stroke-miterlimit:4;stroke-opacity:1;stroke-dasharray:none"
         id="path4795" />
    </g>
    <path
       inkscape:connector-curvature="0"
       d="m 573.53203,964.94071 c -14.88375,0.01 -29.82499,8.79875 -36.97749,23.29125 -5.83125,11.5725 -5.68375,26.52874 0.4925,37.89624 6.91375,13.1738 20.3125,21.3862 34.00375,22.27 14.43874,1.1188 29.44375,-5.7475 37.96375,-18.7162 6.77749,-10.1076 8.82375,-24.0038 4.83875,-35.8638 -4.555,-14.10624 -16.43,-24.49749 -29.62875,-27.64124 -3.49625,-0.875 -7.095,-1.29875 -10.69251,-1.23625 z"
       style="fill:#8c8c8c;fill-opacity:0.729412;fill-rule:nonzero;stroke:none"
       id="path4815" />
    <g
       id="g4809"
       transform="matrix(1.25,0,0,1.25,459.13204,626.19131)">
      <path
         inkscape:connector-curvature="0"
         d="m 91.52,271 c -11.907,0.008 -23.86,7.039 -29.582,18.633 -4.665,9.258 -4.547,21.222 0.394,30.316 5.531,10.539 16.25,17.11 27.203,17.817 11.551,0.894 23.555,-4.598 30.371,-14.973 5.422,-8.086 7.059,-19.203 3.871,-28.691 -3.644,-11.286 -13.144,-19.598 -23.703,-22.114 -2.797,-0.699 -5.676,-1.039 -8.554,-0.988 z"
         style="fill:none;stroke:#000000;stroke-width:1.51679206;stroke-linecap:butt;stroke-linejoin:miter;stroke-miterlimit:4;stroke-opacity:1;stroke-dasharray:none"
         id="path4811" />
    </g>
    <path
       inkscape:connector-curvature="0"
       id="path4825"
       d="m 572.76687,958.29774 0,-56.17064 z"
       style="fill:none;stroke:#000000;stroke-width:2.02200007;stroke-linecap:butt;stroke-linejoin:miter;stroke-miterlimit:4;stroke-opacity:1;stroke-dasharray:none;marker-end:url(#Arrow1Mend)" />
    <path
       inkscape:connector-curvature="0"
       id="path4827"
       d="m 445.47028,858.24152 -33.37246,0 z"
       style="fill:none;stroke:#000000;stroke-width:2.02200007;stroke-linecap:butt;stroke-linejoin:miter;stroke-miterlimit:4;stroke-opacity:1;stroke-dasharray:none;marker-end:url(#Arrow1Mend)" />
    <path
       style="fill:none;stroke:#000000;stroke-width:2.02200007;stroke-linecap:butt;stroke-linejoin:miter;stroke-miterlimit:4;stroke-opacity:1;stroke-dasharray:none;marker-end:url(#Arrow1Mend)"
       d="m 521.47028,858.24152 -33.37246,0 z"
       id="path4829"
       inkscape:connector-curvature="0" />
    <path
       inkscape:connector-curvature="0"
       d="m 232.18975,853.91305 c 0,-2.23953 -0.6112,-6.95394 -4.06528,-6.95394 -4.71438,0 -9.93261,9.56303 -9.93261,17.33666 0,3.19032 0.98079,6.95234 4.06527,6.95234 4.78075,0 9.93262,-9.73518 9.93262,-17.33507 z m -10.408,4.62754 c 0.57331,-2.1669 1.25244,-4.87392 2.6107,-7.28088 0.91286,-1.65359 2.1653,-3.55355 3.68938,-3.55355 1.65832,0 1.86208,2.16529 1.86208,4.09685 0,1.65993 -0.27166,3.38618 -1.08502,6.73758 l -7.07714,0 z m 6.78652,1.09133 c -0.36956,1.56039 -1.08501,4.44748 -2.36904,6.89074 -1.18451,2.31378 -2.47328,3.97369 -3.92945,3.97369 -1.12292,0 -1.83207,-0.98076 -1.83207,-4.13949 0,-1.42619 0.20375,-3.40037 1.08504,-6.72492"
       style="fill:#000000;fill-opacity:1;fill-rule:nonzero;stroke:none"
       id="path4843" />
    <path
       id="path4931"
       style="fill:#000000;fill-opacity:1;fill-rule:nonzero;stroke:none"
       d="m 364.68975,852.84161 c 0,-2.23953 -0.6112,-6.95394 -4.06528,-6.95394 -4.71438,0 -9.93261,9.56303 -9.93261,17.33666 0,3.19032 0.98079,6.95234 4.06527,6.95234 4.78075,0 9.93262,-9.73518 9.93262,-17.33507 z m -10.408,4.62754 c 0.57331,-2.1669 1.25244,-4.87392 2.6107,-7.28088 0.91286,-1.65359 2.1653,-3.55355 3.68938,-3.55355 1.65832,0 1.86208,2.16529 1.86208,4.09685 0,1.65993 -0.27166,3.38618 -1.08502,6.73758 l -7.07714,0 z m 6.78652,1.09133 c -0.36956,1.56039 -1.08501,4.44748 -2.36904,6.89074 -1.18451,2.31378 -2.47328,3.97369 -3.92945,3.97369 -1.12292,0 -1.83207,-0.98076 -1.83207,-4.13949 0,-1.42619 0.20375,-3.40037 1.08504,-6.72492"
       inkscape:connector-curvature="0" />
    <text
       sodipodi:linespacing="125%"
       id="text4935"
       y="876.79077"
       x="366.14285"
       style="font-size:20px;font-style:normal;font-variant:normal;font-weight:normal;font-stretch:normal;line-height:125%;letter-spacing:0px;word-spacing:0px;fill:#000000;fill-opacity:1;stroke:none;font-family:Times New Roman;-inkscape-font-specification:Times New Roman"
       xml:space="preserve"><tspan
         style="font-weight:normal;font-family:Times New Roman;-inkscape-font-specification:Times New Roman"
         y="876.79077"
         x="366.14285"
         id="tspan4937"
         sodipodi:role="line">2</tspan></text>
    <text
       xml:space="preserve"
       style="font-size:20px;font-style:normal;font-variant:normal;font-weight:normal;font-stretch:normal;line-height:125%;letter-spacing:0px;word-spacing:0px;fill:#000000;fill-opacity:1;stroke:none;font-family:Times New Roman;-inkscape-font-specification:Times New Roman"
       x="233.07144"
       y="877.86218"
       id="text4941"
       sodipodi:linespacing="125%"><tspan
         sodipodi:role="line"
         id="tspan4943"
         x="233.07144"
         y="877.86218"
         style="font-weight:normal;font-family:Times New Roman;-inkscape-font-specification:Times New Roman">1</tspan></text>
    <path
       id="path4945"
       style="fill:#000000;fill-opacity:1;fill-rule:nonzero;stroke:none"
       d="m 572.76118,852.48447 c 0,-2.23953 -0.6112,-6.95394 -4.06528,-6.95394 -4.71438,0 -9.93261,9.56303 -9.93261,17.33666 0,3.19032 0.98079,6.95234 4.06527,6.95234 4.78075,0 9.93262,-9.73518 9.93262,-17.33507 z m -10.408,4.62754 c 0.57331,-2.1669 1.25244,-4.87392 2.6107,-7.28088 0.91286,-1.65359 2.1653,-3.55355 3.68938,-3.55355 1.65832,0 1.86208,2.16529 1.86208,4.09685 0,1.65993 -0.27166,3.38618 -1.08502,6.73758 l -7.07714,0 z m 6.78652,1.09133 c -0.36956,1.56039 -1.08501,4.44748 -2.36904,6.89074 -1.18451,2.31378 -2.47328,3.97369 -3.92945,3.97369 -1.12292,0 -1.83207,-0.98076 -1.83207,-4.13949 0,-1.42619 0.20375,-3.40037 1.08504,-6.72492"
       inkscape:connector-curvature="0" />
    <text
       sodipodi:linespacing="125%"
       id="text4949"
       y="876.43359"
       x="573.64288"
       style="font-size:20px;font-style:normal;font-variant:normal;font-weight:normal;font-stretch:normal;line-height:125%;letter-spacing:0px;word-spacing:0px;fill:#000000;fill-opacity:1;stroke:none;font-family:Times New Roman;-inkscape-font-specification:Times New Roman"
       xml:space="preserve"><tspan
         style="font-weight:normal;font-family:Times New Roman;-inkscape-font-specification:Times New Roman"
         y="876.43359"
         x="573.64288"
         id="tspan4951"
         sodipodi:role="line">T</tspan></text>
    <text
       sodipodi:linespacing="125%"
       id="text4958"
       y="1018.4336"
       x="234.78572"
       style="font-size:20px;font-style:normal;font-variant:normal;font-weight:normal;font-stretch:normal;line-height:125%;letter-spacing:0px;word-spacing:0px;fill:#000000;fill-opacity:1;stroke:none;font-family:Times New Roman;-inkscape-font-specification:Times New Roman"
       xml:space="preserve"><tspan
         style="font-weight:normal;font-family:Times New Roman;-inkscape-font-specification:Times New Roman"
         y="1018.4336"
         x="234.78572"
         id="tspan4960"
         sodipodi:role="line">1</tspan></text>
    <path
       id="path4962"
       style="fill:#000000;fill-opacity:1;fill-rule:nonzero;stroke:none"
       d="m 362.12991,1004.9848 3.92625,-4.3512 c 0.43875,-0.4688 0.63875,-0.70252 3.4225,-0.70252 l 0,-1.5825 c -1.17125,0.064 -2.915,0.097 -3.08625,0.097 -0.84,0 -2.51375,-0.064 -3.45624,-0.097 l 0,1.5825 c 0.46875,0 0.87374,0.067 1.27375,0.30252 -0.13125,0.2 -0.13125,0.2637 -0.26375,0.4 l -2.8225,3.14 -3.285,-3.84252 1.3425,0 0,-1.5825 c -0.87375,0.034 -2.98875,0.097 -4.0625,0.097 -1.075,0 -2.58375,-0.064 -3.69125,-0.097 l 0,1.5825 2.3825,0 5.23375,6.16122 -4.39375,4.9225 c -0.57125,0.635 -1.7775,0.635 -3.38875,0.635 l 0,1.5813 c 1.17125,-0.064 2.92,-0.097 3.08625,-0.097 0.83875,0 2.7825,0.064 3.45625,0.097 l 0,-1.5813 c -0.605,0 -1.24,-0.1662 -1.24,-0.3662 0,-0.035 0,-0.069 0.23375,-0.3375 l 3.2525,-3.6525 3.69125,4.3562 -1.30876,0 0,1.5813 c 0.875,-0.034 2.92001,-0.097 4.02875,-0.097 1.07375,0 2.5825,0.064 3.69125,0.097 l 0,-1.5813 -2.3825,0"
       inkscape:connector-curvature="0" />
    <text
       xml:space="preserve"
       style="font-size:20px;font-style:normal;font-variant:normal;font-weight:normal;font-stretch:normal;line-height:125%;letter-spacing:0px;word-spacing:0px;fill:#000000;fill-opacity:1;stroke:none;font-family:Times New Roman;-inkscape-font-specification:Times New Roman"
       x="369.64108"
       y="1018.4335"
       id="text4964"
       sodipodi:linespacing="125%"><tspan
         sodipodi:role="line"
         id="tspan4966"
         x="369.64108"
         y="1018.4335"
         style="font-weight:normal;font-family:Times New Roman;-inkscape-font-specification:Times New Roman">2</tspan></text>
    <path
       inkscape:connector-curvature="0"
       d="m 570.51794,1004.9848 3.92625,-4.3512 c 0.43875,-0.4688 0.63875,-0.7025 3.4225,-0.7025 l 0,-1.5825 c -1.17125,0.064 -2.915,0.097 -3.08625,0.097 -0.84,0 -2.51375,-0.064 -3.45624,-0.097 l 0,1.5825 c 0.46875,0 0.87374,0.067 1.27375,0.3025 -0.13125,0.2 -0.13125,0.2637 -0.26375,0.4 l -2.8225,3.14 -3.285,-3.8425 1.3425,0 0,-1.5825 c -0.87375,0.034 -2.98875,0.097 -4.0625,0.097 -1.075,0 -2.58375,-0.064 -3.69125,-0.097 l 0,1.5825 2.3825,0 5.23375,6.1612 -4.39375,4.9225 c -0.57125,0.635 -1.7775,0.635 -3.38875,0.635 l 0,1.5813 c 1.17125,-0.064 2.92,-0.097 3.08625,-0.097 0.83875,0 2.7825,0.064 3.45625,0.097 l 0,-1.5813 c -0.605,0 -1.24,-0.1662 -1.24,-0.3662 0,-0.035 0,-0.069 0.23375,-0.3375 l 3.2525,-3.6525 3.69125,4.3562 -1.30876,0 0,1.5813 c 0.875,-0.034 2.92001,-0.097 4.02875,-0.097 1.07375,0 2.5825,0.064 3.69125,0.097 l 0,-1.5813 -2.3825,0"
       style="fill:#000000;fill-opacity:1;fill-rule:nonzero;stroke:none"
       id="path4968" />
    <text
       sodipodi:linespacing="125%"
       id="text4970"
       y="1018.4336"
       x="578.02911"
       style="font-size:20px;font-style:normal;font-variant:normal;font-weight:normal;font-stretch:normal;line-height:125%;letter-spacing:0px;word-spacing:0px;fill:#000000;fill-opacity:1;stroke:none;font-family:Times New Roman;-inkscape-font-specification:Times New Roman"
       xml:space="preserve"><tspan
         style="font-weight:normal;font-family:Times New Roman;-inkscape-font-specification:Times New Roman"
         y="1018.4336"
         x="578.02911"
         id="tspan4972"
         sodipodi:role="line">T</tspan></text>
    <text
       xml:space="preserve"
       style="font-size:20px;font-style:normal;font-variant:normal;font-weight:bold;font-stretch:normal;line-height:125%;letter-spacing:0px;word-spacing:0px;fill:#000000;fill-opacity:1;stroke:none;font-family:Utopia;-inkscape-font-specification:Sans Bold"
       x="456.56863"
       y="859.42303"
       id="text5004"
       sodipodi:linespacing="125%"><tspan
         sodipodi:role="line"
         id="tspan5006"
         x="456.56863"
         y="859.42303"
         style="font-size:20px">. . .</tspan></text>
  </g>
</svg>
